<svg xmlns="http://www.w3.org/2000/svg" viewBox="0 0 128 96" role="img" aria-label="Pixel bird">
  <rect x="25" y="38" width="12" height="24" fill="#050505"/>
  <rect x="37" y="27" width="28" height="11" fill="#050505"/>
  <rect x="65" y="18" width="32" height="10" fill="#050505"/>
  <rect x="97" y="28" width="14" height="26" fill="#050505"/>
  <rect x="37" y="62" width="37" height="12" fill="#050505"/>
  <rect x="74" y="54" width="38" height="10" fill="#050505"/>
  <rect x="111" y="63" width="11" height="12" fill="#050505"/>
  <rect x="37" y="38" width="20" height="24" fill="#ffcf24"/>
  <rect x="57" y="28" width="27" height="45" fill="#ffd946"/>
  <rect x="84" y="28" width="15" height="30" fill="#fff"/>
  <rect x="42" y="51" width="27" height="11" fill="#fff"/>
  <rect x="31" y="45" width="12" height="12" fill="#ffc04b"/>
  <rect x="57" y="63" width="18" height="10" fill="#f08b00"/>
  <rect x="100" y="55" width="25" height="10" fill="#df0907"/>
  <rect x="93" y="66" width="30" height="10" fill="#cf0706"/>
  <rect x="100" y="38" width="8" height="15" fill="#050505"/>
  <rect x="83" y="35" width="9" height="16" fill="#b9eef0"/>
  <rect x="40" y="35" width="11" height="9" fill="#ffe88e"/>
</svg>
