<svg xmlns="http://www.w3.org/2000/svg" viewBox="0 0 612 425" role="img" aria-label="Pixel city sky background">
  <rect width="612" height="425" fill="#6fc8d2"/>
  <g fill="#e9f7d3">
    <circle cx="4" cy="351" r="13"/><circle cx="21" cy="356" r="20"/><circle cx="47" cy="351" r="16"/>
    <circle cx="82" cy="353" r="22"/><circle cx="112" cy="350" r="13"/><circle cx="147" cy="351" r="18"/>
    <circle cx="183" cy="352" r="14"/><circle cx="224" cy="356" r="21"/><circle cx="260" cy="351" r="17"/>
    <circle cx="296" cy="351" r="20"/><circle cx="329" cy="353" r="14"/><circle cx="363" cy="354" r="23"/>
    <circle cx="402" cy="352" r="15"/><circle cx="437" cy="352" r="18"/><circle cx="473" cy="351" r="16"/>
    <circle cx="514" cy="353" r="21"/><circle cx="552" cy="351" r="15"/><circle cx="592" cy="353" r="22"/>
  </g>
  <g fill="#b7e2c1" stroke="#86c9a3" stroke-width="2">
    <rect x="2" y="371" width="16" height="28"/><rect x="22" y="363" width="18" height="36"/><rect x="46" y="376" width="16" height="23"/>
    <rect x="70" y="365" width="20" height="34"/><rect x="96" y="356" width="19" height="43"/><rect x="121" y="371" width="16" height="28"/>
    <rect x="152" y="360" width="20" height="39"/><rect x="179" y="372" width="15" height="27"/><rect x="205" y="365" width="18" height="34"/>
    <rect x="232" y="356" width="21" height="43"/><rect x="260" y="371" width="15" height="28"/><rect x="291" y="362" width="19" height="37"/>
    <rect x="319" y="371" width="17" height="28"/><rect x="348" y="357" width="21" height="42"/><rect x="378" y="365" width="18" height="34"/>
    <rect x="407" y="375" width="16" height="24"/><rect x="437" y="361" width="21" height="38"/><rect x="467" y="369" width="17" height="30"/>
    <rect x="495" y="355" width="20" height="44"/><rect x="525" y="370" width="16" height="29"/><rect x="554" y="362" width="18" height="37"/>
    <rect x="584" y="373" width="17" height="26"/>
  </g>
  <g stroke="#dff3d0" stroke-width="2" opacity=".9">
    <path d="M9 380h7m12 0h7m41 0h7m20-16h7m58 8h7m80-9h7m52 16h7m51-12h7m70 9h7m64-13h7m71 15h7"/>
    <path d="M31 388h7m29-8h7m93 8h7m45-12h7m75 12h7m83-8h7m49 8h7m86-13h7"/>
  </g>
  <path d="M0 393h612v7H0z" fill="#79cf4e"/>
  <path d="M0 400h612v7H0z" fill="#4aaa34"/>
  <path d="M0 407h612v18H0z" fill="#e1c47a"/>
  <path d="M0 410h612" stroke="#b79454" stroke-width="3"/>
</svg>
